<svg xmlns="http://www.w3.org/2000/svg" viewBox="-5932 28 162.703 50.874">
  <defs>
    <style>
      .cls-1 {
        fill: #000222;
      }
    </style>
  </defs>
  <g id="XMLID_15_" transform="translate(-5932 28)">
    <path id="XMLID_30_" class="cls-1" d="M26.936,38.927,17.117,23.634l9.037-12.773H16.77L8.428,23.243V0H0V38.927H8.428V24.547l8.646,14.38Z"/>
    <rect id="XMLID_29_" class="cls-1" width="8.428" height="38.927" transform="translate(57.609)"/>
    <path id="XMLID_26_" class="cls-1" d="M71.706,23A15.206,15.206,0,1,0,86.912,38.206,15.223,15.223,0,0,0,71.706,23Zm0,22.722a7.516,7.516,0,1,1,7.516-7.516A7.519,7.519,0,0,1,71.706,45.722Z" transform="translate(-31.953 -13.008)"/>
    <path id="XMLID_23_" class="cls-1" d="M186.912,38.206a15.12,15.12,0,1,0-1.043,5.6h-9.124a7.445,7.445,0,0,1-5.04,1.955,7.563,7.563,0,0,1-7.125-5.127h22.287M171.706,30.69a7.471,7.471,0,0,1,6.995,4.822H164.668A7.529,7.529,0,0,1,171.706,30.69Z" transform="translate(-88.508 -13.008)"/>
    <path id="XMLID_20_" class="cls-1" d="M334.912,38.206a15.12,15.12,0,1,0-1.043,5.6h-9.124a7.445,7.445,0,0,1-5.04,1.955,7.563,7.563,0,0,1-7.125-5.127h22.287M319.706,30.69a7.471,7.471,0,0,1,6.995,4.822H312.668A7.529,7.529,0,0,1,319.706,30.69Z" transform="translate(-172.209 -13.008)"/>
    <path id="XMLID_19_" class="cls-1" d="M282.8,55.5v0Z" transform="translate(-159.937 -31.388)"/>
    <path id="XMLID_16_" class="cls-1" d="M261.159,21.4h-7.951v2.085a14.958,14.958,0,0,0-7.6-2.042,15.206,15.206,0,1,0,7.6,28.37V50.6a5.262,5.262,0,0,1-1.564,3.172c-4.736,4.3-12.773.3-13.989-.782L233.7,59.024a14.555,14.555,0,0,0,6.082,3.128,29.077,29.077,0,0,0,6.691.825c4.953,0,8.6-1.347,11.079-4,3.389-3.606,3.649-5.735,3.649-11.687Zm-15.51,22.765a7.516,7.516,0,1,1,7.516-7.516A7.519,7.519,0,0,1,245.649,44.165Z" transform="translate(-130.302 -12.103)"/>
  </g>
</svg>
