<?xml version="1.0" encoding="utf-8"?>
<!-- Generator: Adobe Illustrator 19.0.0, SVG Export Plug-In . SVG Version: 6.00 Build 0)  -->
<svg version="1.1" id="Layer_1" xmlns="http://www.w3.org/2000/svg" xmlns:xlink="http://www.w3.org/1999/xlink" x="0px" y="0px"
	 viewBox="0 0 387.1 134.4" style="enable-background:new 0 0 387.1 134.4;" xml:space="preserve">
<g id="XMLID_1156_">
	<polygon id="XMLID_1171_" points="69.9,96.7 47.3,61.6 68,32.1 46.5,32.1 27.3,60.7 27.3,7.2 7.9,7.2 7.9,96.7 27.3,96.7 
		27.3,63.6 47.1,96.7 	"/>
	<rect id="XMLID_1170_" x="140.4" y="7.2" width="19.4" height="89.6"/>
	<path id="XMLID_1167_" d="M99.3,30.2c-19.3,0-35,15.7-35,35s15.7,35,35,35c19.3,0,35-15.7,35-35S118.6,30.2,99.3,30.2z M99.3,82.5
		c-9.6,0-17.3-7.8-17.3-17.3s7.8-17.3,17.3-17.3s17.3,7.8,17.3,17.3S108.9,82.5,99.3,82.5z"/>
	<path id="XMLID_1164_" d="M234.3,65.2c0-19.3-15.7-35-35-35c-19.3,0-35,15.7-35,35s15.7,35,35,35c14.8,0,27.4-9.2,32.6-22.1h-21
		c-3.1,2.8-7.1,4.5-11.6,4.5c-7.6,0-14.1-5-16.4-11.8h51.3 M199.3,47.8c7.4,0,13.6,4.6,16.1,11.1h-32.3
		C185.7,52.4,191.9,47.8,199.3,47.8z"/>
	<path id="XMLID_1161_" d="M383.3,65.2c0-19.3-15.7-35-35-35c-19.3,0-35,15.7-35,35s15.7,35,35,35c14.8,0,27.4-9.2,32.6-22.1h-21
		c-3.1,2.8-7.1,4.5-11.6,4.5c-7.6,0-14.1-5-16.4-11.8h51.3 M348.3,47.8c7.4,0,13.6,4.6,16.1,11.1h-32.3
		C334.7,52.4,340.9,47.8,348.3,47.8z"/>
	<path id="XMLID_1160_" d="M290.6,62.6v0.1C290.6,62.7,290.6,62.7,290.6,62.6C290.6,62.6,290.6,62.6,290.6,62.6z"/>
	<path id="XMLID_1157_" d="M309,28.5h-18.3v4.8c-5.1-3-11.1-4.7-17.5-4.7c-19.3,0-35,15.7-35,35s15.7,35,35,35
		c6.4,0,12.3-1.7,17.5-4.7v1.8c-0.5,2.8-1.5,5.5-3.6,7.3c-10.9,9.9-29.4,0.7-32.2-1.8l-9.1,13.9c4.3,3.6,8.9,6,14,7.2
		c5.1,1.2,10.2,1.9,15.4,1.9c11.4,0,19.8-3.1,25.5-9.2c7.8-8.3,8.4-13.2,8.4-26.9L309,28.5z M273.3,81c-9.6,0-17.3-7.8-17.3-17.3
		s7.8-17.3,17.3-17.3c9.6,0,17.3,7.8,17.3,17.3S282.9,81,273.3,81z"/>
</g>
</svg>
