<?xml version="1.0" encoding="utf-8"?>
<!-- Generator: Adobe Illustrator 19.0.0, SVG Export Plug-In . SVG Version: 6.00 Build 0)  -->
<svg version="1.1" id="Layer_1" xmlns="http://www.w3.org/2000/svg" xmlns:xlink="http://www.w3.org/1999/xlink" x="0px" y="0px"
	 viewBox="0 0 37.8 33" style="enable-background:new 0 0 37.8 33;" xml:space="preserve">
<style type="text/css">
	.st0{fill:#0E122C;}
</style>
<g id="XMLID_1_">
	<path id="XMLID_109_" class="st0" d="M3.2,15.1h29.9c0.6,0,1,0.4,1,1s-0.4,1-1,1H3.2c-0.6,0-1-0.4-1-1S2.7,15.1,3.2,15.1z"/>
</g>
<g id="XMLID_3_">
	<path id="XMLID_108_" class="st0" d="M16.6,1.7c0.3,0,0.5,0.1,0.7,0.3c0.4,0.4,0.4,1,0,1.4L4.7,16.1l12.7,12.7c0.4,0.4,0.4,1,0,1.4
		s-1,0.4-1.4,0L2.5,16.8c-0.2-0.2-0.3-0.4-0.3-0.7s0.1-0.5,0.3-0.7L15.9,2C16.1,1.8,16.4,1.7,16.6,1.7z"/>
</g>
</svg>
