<?xml version="1.0" encoding="utf-8"?>
<!-- Generator: Adobe Illustrator 19.0.0, SVG Export Plug-In . SVG Version: 6.00 Build 0)  -->
<svg version="1.1" id="Layer_1" xmlns="http://www.w3.org/2000/svg" xmlns:xlink="http://www.w3.org/1999/xlink" x="0px" y="0px"
	 viewBox="0 0 37.8 33" style="enable-background:new 0 0 37.8 33;" xml:space="preserve">
<style type="text/css">
	.st0{fill:#0E122C;}
</style>
<g id="XMLID_1_">
	<path id="XMLID_109_" class="st0" d="M33.2,17.1H3.2c-0.6,0-1-0.4-1-1s0.4-1,1-1h29.9c0.6,0,1,0.4,1,1S33.7,17.1,33.2,17.1z"/>
</g>
<g id="XMLID_3_">
	<path id="XMLID_108_" class="st0" d="M19.8,30.4c-0.3,0-0.5-0.1-0.7-0.3c-0.4-0.4-0.4-1,0-1.4l12.7-12.7L19.1,3.4
		c-0.4-0.4-0.4-1,0-1.4s1-0.4,1.4,0l13.4,13.4c0.2,0.2,0.3,0.4,0.3,0.7s-0.1,0.5-0.3,0.7L20.5,30.1C20.3,30.3,20.1,30.4,19.8,30.4z"
		/>
</g>
</svg>
